<?xml version="1.0" encoding="UTF-8" standalone="no"?>
<svg
   width="590"
   height="120"
   version="1.1"
   id="svg13"
   sodipodi:docname="logo.svg"
   inkscape:version="1.4 (e7c3feb100, 2024-10-09)"
   xmlns:inkscape="http://www.inkscape.org/namespaces/inkscape"
   xmlns:sodipodi="http://sodipodi.sourceforge.net/DTD/sodipodi-0.dtd"
   xmlns:xlink="http://www.w3.org/1999/xlink"
   xmlns="http://www.w3.org/2000/svg"
   xmlns:svg="http://www.w3.org/2000/svg">
  <defs
     id="defs13">
    <linearGradient
       id="linearGradient1"
       inkscape:collect="always">
      <stop
         style="stop-color:#00d3f2;stop-opacity:1;"
         offset="0"
         id="stop1" />
      <stop
         style="stop-color:#00bba7;stop-opacity:1;"
         offset="0.4521125"
         id="stop3" />
      <stop
         style="stop-color:#00c950;stop-opacity:1;"
         offset="1"
         id="stop2" />
    </linearGradient>
    <linearGradient
       inkscape:collect="always"
       xlink:href="#linearGradient1"
       id="linearGradient2"
       x1="9.2544479"
       y1="59.999996"
       x2="522.74554"
       y2="59.999996"
       gradientUnits="userSpaceOnUse"
       gradientTransform="matrix(1.1386784,0,0,1.1386784,-7.8883859,-8.3206984)" />
  </defs>
  <sodipodi:namedview
     id="namedview13"
     pagecolor="#ffffff"
     bordercolor="#999999"
     borderopacity="1"
     inkscape:showpageshadow="2"
     inkscape:pageopacity="0"
     inkscape:pagecheckerboard="0"
     inkscape:deskcolor="#d1d1d1"
     showgrid="false"
     inkscape:zoom="1.5232037"
     inkscape:cx="190.3882"
     inkscape:cy="50.551349"
     inkscape:window-width="1920"
     inkscape:window-height="1011"
     inkscape:window-x="0"
     inkscape:window-y="0"
     inkscape:window-maximized="1"
     inkscape:current-layer="svg13" />
  <path
     id="path1"
     style="fill:url(#linearGradient2);stroke-width:1.23843"
     d="M 53.447649,3.0494098 C 49.325535,4.1701891 30.680622,14.714144 28.828177,18.128001 c -1.126724,2.0766 -0.825614,25.455487 -0.02002,27.822004 0.184525,0.542061 0.415435,1.072979 0.660522,1.590147 -5.213792,3.15032 -10.444805,6.273922 -15.692412,9.367408 -2.737798,1.620116 -5.8205843,3.112755 -8.2887759,5.108485 -1.1358892,0.91842 -2.3733487,2.134092 -2.7488412,3.593953 -0.1793249,0.697237 -0.092716,1.295179 0.3002374,1.897057 1.9235298,2.946102 6.6818076,4.609153 9.4474707,6.752009 -3.2439433,1.719189 -7.5357485,3.457392 -8.6868684,7.290206 -0.8499353,2.829809 -0.9473279,17.865611 0.393644,20.24713 1.5798655,2.80503 20.2553694,13.46745 23.9811874,15.15419 4.756191,-1.81429 23.852339,-14.27278 25.435674,-14.35579 0.195795,-0.0107 0.594336,0.0731 0.789512,0.12009 0.02329,0.004 0.0427,0.0199 0.0645,0.0289 2.807027,1.89853 21.743911,14.17137 24.163555,13.67971 3.487544,-0.70963 22.354448,-11.90516 24.804058,-14.68048 1.2211,-2.958614 1.45334,-18.042989 0.24464,-21.192323 -0.98951,-2.579652 -6.594965,-5.150584 -8.982658,-6.327226 3.031678,-1.92588 9.418898,-4.690113 10.548348,-8.197596 -0.3381,-1.874983 -2.46421,-3.441444 -3.93423,-4.467978 C 97.504501,58.900988 93.342752,56.639384 89.376061,54.232122 85.58857,51.933844 81.84073,49.381434 77.911438,47.340005 78.409039,46.514591 78.902675,45.65856 79.079027,44.700139 79.88054,40.345447 79.927354,22.965012 78.918901,18.844135 78.365695,16.58338 76.367168,15.484707 74.495403,14.362812 69.752466,11.519985 58.173996,3.8936476 53.447649,3.0494098 Z m 0.535979,5.740095 c 6.421137,3.5123122 12.786519,7.5262482 18.943872,11.4824142 -4.758422,3.696839 -14.671518,8.209296 -18.100983,12.149609 -0.844733,0.970558 -1.391481,2.146427 -1.652418,3.402691 -0.801261,3.85833 -0.279995,15.827194 0.04671,20.18263 C 46.863816,52.678691 40.143433,48.763011 34.252468,44.66232 34.119831,39.987493 33.415667,25.210224 34.461522,21.517349 35.150832,19.083461 51.018083,10.535568 53.983628,8.7895048 Z M 273.84196,14.042547 c -0.42,0.0031 -0.83717,0.01572 -1.24987,0.04671 -7.70056,0.934271 -14.48525,2.811206 -19.47985,9.240641 -2.00255,2.617546 -3.36739,5.668301 -3.98537,8.907045 -1.65578,8.360025 0.52919,49.282122 -1.12535,51.963323 4.33078,-0.04335 10.26443,0.532276 14.39583,-0.215734 0.40744,-0.759156 0.4053,-1.265663 0.18237,-2.123897 -0.10036,-0.391341 -0.31289,-0.783251 -0.50484,-1.138678 0.30713,-0.475558 0.48923,-0.940924 0.53376,-1.505641 0.2194,-2.797493 0.39284,-24.241769 -0.002,-25.882689 -0.10036,-0.414874 -0.34442,-0.803393 -0.57601,-1.15647 3.73387,0.0743 7.93703,-0.356272 11.58915,0.149007 0.84957,-1.648227 0.98443,-10.341001 0.37141,-12.363111 -0.10154,-0.335242 -0.2773,-0.643042 -0.46926,-0.934073 -3.84162,0.08917 -7.68403,0.123342 -11.52689,0.106748 0.0396,-0.05499 0.0807,-0.108721 0.11787,-0.164574 0.80744,-1.186169 0.76091,-2.876712 1.05194,-4.258924 0.78392,-3.71653 4.27532,-5.8678 7.74168,-6.631912 2.30224,-0.507633 4.58019,-0.524096 6.90102,-0.16235 0.83965,-1.646865 0.87895,-10.824407 0.24242,-12.821252 -0.0867,-0.268987 -0.21174,-0.514019 -0.33806,-0.76505 -0.0285,-0.05758 -0.0573,-0.11761 -0.0845,-0.175694 -1.24278,-0.03343 -2.52522,-0.122496 -3.78522,-0.113423 z m -34.35383,0.01557 c -0.87929,-0.0066 -1.75899,-0.0017 -2.63766,0.03113 -7.35131,0.881019 -14.02811,2.765065 -18.80597,8.846997 -2.09419,2.667208 -3.47907,5.706442 -4.21222,9.013795 -1.97655,8.917442 0.21931,49.525576 -1.52565,52.185724 4.80264,-0.01116 9.65201,-0.165952 14.44475,0.108971 0.57834,-1.172793 0.64392,-2.482262 0.24019,-3.731848 -0.0879,-0.268716 -0.20996,-0.516869 -0.35361,-0.758371 0.28237,-0.442115 0.46713,-0.87849 0.52042,-1.40333 0.30718,-3.010005 0.45732,-22.723442 -0.0356,-24.988655 -0.0929,-0.422304 -0.27971,-0.809415 -0.50262,-1.176486 3.78836,0.131525 7.8044,-0.270878 11.53579,0.17347 1.01799,-1.811451 0.89685,-10.453154 0.3247,-12.543253 -0.0792,-0.291402 -0.19221,-0.575862 -0.31358,-0.851785 -3.8961,0.253012 -7.82352,0.223018 -11.72705,0.275773 0.0173,-0.02564 0.0338,-0.05208 0.0511,-0.07785 2.70721,-4.129917 -0.55933,-9.048409 8.82921,-11.055409 2.34931,-0.502184 4.56722,-0.574236 6.93881,-0.222399 0.94865,-1.535653 0.65116,-10.946103 0.22018,-12.785667 -0.0818,-0.347504 -0.2097,-0.678175 -0.35584,-1.003016 -0.87866,-0.01202 -1.75612,-0.03126 -2.63541,-0.03781 z m -91.92827,2.957895 c -0.81979,-0.0084 -1.65531,0.106076 -2.48196,0.355837 -4.34938,1.313852 -6.82836,5.888449 -5.55773,10.252553 1.27187,4.364105 5.81837,6.889422 10.19251,5.660032 4.43358,-1.246355 7.00038,-5.872739 5.71118,-10.297032 -1.04648,-3.594738 -4.3115,-5.934954 -7.864,-5.97139 z M 546.52207,18.9531 c -2.31276,-0.01082 -4.62264,0.0407 -6.86543,0.286893 -0.74925,4.084963 -0.20471,9.202591 -0.20015,13.390591 0.005,5.69839 0.78806,49.50406 -0.50485,51.536316 4.80386,-0.03215 9.64709,-0.18918 14.44476,0.08451 0.0286,-0.04703 0.0564,-0.09309 0.0823,-0.140114 0.64028,-1.150498 0.33784,-3.289095 0.34695,-4.630321 l 0.0177,-11.675907 c -0.0422,-6.27042 -1.13396,-14.637108 6.3895,-17.086848 2.53012,-0.823433 5.75011,-0.736299 8.13532,0.500395 1.92204,0.995947 3.26257,2.748753 3.90532,4.801576 0.70467,2.24998 1.2754,10.420634 0.28467,12.467641 -0.0199,0.03961 -0.037,0.08024 -0.0556,0.120096 -0.0322,0.06898 -0.0706,0.133886 -0.10897,0.200158 1.01799,1.625554 0.90096,12.251301 0.47372,14.31576 -0.0805,0.391341 -0.23551,0.729676 -0.44481,1.06529 4.73329,-0.03462 9.4849,-0.156363 14.21568,0.03559 1.11336,-2.06694 0.66694,-20.91393 0.35362,-24.474912 -0.2031,-2.304967 -0.58335,-4.607866 -1.2521,-6.825398 -1.66569,-5.518322 -5.05076,-10.285846 -10.2014,-13.019185 -4.56856,-2.42497 -10.90541,-3.404542 -15.89256,-1.814769 -2.5004,0.797303 -4.25574,2.743548 -6.58522,3.689584 0.97712,-1.687609 1.26551,-19.805384 0.60048,-22.099701 -0.0632,-0.218705 -0.1535,-0.431097 -0.25132,-0.636058 -2.25766,-0.0081 -4.57489,-0.08031 -6.88766,-0.09118 z m -129.36008,7.432546 c -2.35736,-0.01046 -4.71101,0.03488 -6.99221,0.25798 0.83099,8.666536 0.1937,17.870369 0.18459,26.594367 -0.003,4.773407 -0.23729,9.740979 1.06307,14.380263 1.21737,4.415013 3.75897,8.349181 7.28353,11.271132 6.13147,5.097385 13.41889,5.975158 21.10336,5.633349 0.76906,-1.460116 0.968,-10.519567 0.40699,-12.318632 -0.0693,-0.220437 -0.22873,-0.416711 -0.37363,-0.591577 -0.0396,-0.04876 -0.0781,-0.09965 -0.12009,-0.146788 -0.026,-0.02892 -0.0551,-0.0533 -0.0823,-0.08006 -0.0508,-0.0115 -0.10047,-0.02419 -0.15124,-0.03559 -1.18765,-0.250611 -2.52535,0.02254 -3.73406,0.06228 -3.47133,0.114311 -7.23625,-0.745675 -9.28957,-3.809683 -3.30537,-4.934155 -0.40872,-11.691244 -2.41746,-15.341022 4.14132,-0.0028 8.97092,-0.453163 13.05031,0.06228 0.75048,-1.734669 1.0895,-10.630786 0.3514,-12.578837 -0.0867,-0.227871 -0.17985,-0.435165 -0.30247,-0.644955 -4.38528,-0.01046 -8.7708,0.03448 -13.15485,0.135663 1.12574,-1.693925 0.98595,-9.694368 0.5649,-11.907195 -0.0582,-0.303539 -0.21858,-0.601962 -0.37586,-0.865128 -2.29729,-0.0019 -4.65708,-0.06731 -7.01444,-0.07785 z m -60.28992,10.77074 c -0.90157,0.0092 -1.80312,0.06006 -2.7177,0.108971 -7.21758,0.827272 -14.18332,3.08928 -18.84602,9.009348 -6.61569,8.400645 -5.0255,22.309594 -4.90166,32.503488 0.0186,1.536896 0.36145,4.021925 -0.34693,5.40649 l 6.0003,-0.04892 c 2.65767,0.01116 5.32891,-0.03672 7.98409,0.04003 0.80374,-1.441533 0.59445,-3.666783 0.60937,-5.284174 0.052,-5.795109 -1.18489,-18.42392 1.35885,-23.107167 1.21862,-2.240445 3.28071,-3.539599 5.6845,-4.225565 2.64034,-0.734142 5.41282,-0.855549 8.10641,-0.353613 0.74921,-1.725629 0.88057,-11.437907 0.0868,-13.306079 -0.0892,-0.211276 -0.1848,-0.408508 -0.30245,-0.604923 -0.91335,-0.114928 -1.81391,-0.147082 -2.71549,-0.137887 z m 160.66929,0.01116 c -0.62871,0.01471 -1.24561,0.04747 -1.84811,0.09785 -7.04544,0.634696 -13.5476,2.545193 -18.28335,8.179803 -4.18341,4.978242 -5.85836,11.411244 -5.2664,17.829657 0.54988,5.970099 3.2668,12.013315 7.93072,15.888123 6.5996,5.483762 15.77197,6.040428 23.94561,5.255263 1.71027,-0.16471 5.65505,-0.383552 6.94549,-1.212066 0.49289,-1.474964 0.76824,-3.108205 0.0289,-4.565838 -0.031,-0.05945 -0.0644,-0.116704 -0.0978,-0.175687 1.05762,-1.712743 0.85016,-6.895733 0.37585,-8.900376 -0.0582,-0.24658 -0.14948,-0.47788 -0.26465,-0.702782 -3.71529,2.396861 -12.59225,3.122507 -16.9156,2.203969 -2.63167,-0.559398 -5.0406,-2.014013 -6.5007,-4.312298 -1.55424,-2.444786 -1.9045,-5.612998 -1.25433,-8.406649 0.55111,-2.46559 2.0897,-4.597894 4.25447,-5.897998 4.737,-2.868699 11.7386,-1.810975 16.86446,-0.522636 1.14555,0.287563 2.64049,0.621697 3.53835,1.430021 0.8173,-2.710552 1.02555,-11.699726 -0.0555,-14.360246 -4.05493,-1.188523 -8.99625,-1.931088 -13.39727,-1.828113 z m -130.72338,0.01335 c -0.71911,0.0063 -1.42618,0.03376 -2.11723,0.08451 -6.06584,0.428497 -12.96626,1.047525 -17.23141,5.966942 -2.68615,3.098058 -3.33691,6.754439 -3.04463,10.748501 0.22663,3.086169 1.46852,5.630738 3.82525,7.650495 5.62742,4.821333 21.6442,5.502271 23.38295,8.411095 -0.14118,0.470603 -0.11954,0.602394 -0.57158,0.840663 -2.86325,1.505936 -14.85052,0.800069 -18.44569,0.302467 -3.13818,-0.434441 -6.4277,-1.423314 -9.54977,-1.645743 0.96597,1.780244 1.07203,10.374612 0.50483,12.39202 -0.0904,0.319513 -0.2346,0.617835 -0.3981,0.905158 6.20083,0.702189 12.32511,1.599775 18.56803,1.919298 6.93398,0.04953 14.42818,-0.722729 19.6333,-5.842398 2.56851,-2.525406 3.75967,-5.547754 3.75853,-9.138338 -10e-4,-3.432186 -0.8027,-6.774651 -3.30928,-9.253989 -5.63486,-5.571451 -23.89811,-6.409483 -24.34147,-8.702439 1.71893,-1.632374 6.29352,-1.845185 8.56232,-1.781407 4.71966,0.132387 12.01955,0.39565 16.29956,2.557578 1.25825,-2.083412 0.96348,-10.352254 0.21795,-12.847939 -0.0706,-0.235798 -0.22744,-0.42969 -0.39586,-0.6027 -4.6997,-1.029879 -10.31389,-2.007371 -15.3477,-1.963774 z m 80.13227,0.160126 c -1.47811,0.0033 -2.96039,0.09435 -4.43907,0.246861 -6.7445,1.467046 -12.38799,4.410216 -16.23952,10.377097 -3.45769,5.357079 -4.44888,12.319034 -3.10023,18.510195 1.26445,5.804265 4.4792,10.967853 9.53199,14.18455 8.21204,5.227422 20.03238,4.741218 29.26982,2.642087 0.68114,-0.154803 1.48084,-0.296045 2.05051,-0.718347 0.70592,-1.829161 0.94437,-8.500609 0.13566,-10.328165 -0.0854,-0.191332 -0.18778,-0.371607 -0.29801,-0.549322 l 0.56488,-1.1965 -0.24241,-0.591577 c -1.86878,-0.608567 -4.25872,0.394916 -6.14486,0.642727 -3.59764,0.472505 -11.23026,1.313716 -14.56039,0.0021 -3.09857,-1.220356 -4.78241,-3.642643 -7.49705,-5.1752 8.3755,2.147316 17.17011,3.251425 25.02424,-1.403333 3.09607,-1.834858 5.57192,-4.598106 6.47846,-8.139771 0.86441,-3.35342 0.35526,-6.914096 -1.41446,-9.890044 -2.51896,-4.222924 -7.13854,-6.654222 -11.78264,-7.790606 -2.41882,-0.59166 -4.87342,-0.828404 -7.33692,-0.822874 z m -282.03418,0.02891 c -1.16793,0.0081 -2.34594,0.06188 -3.53391,0.149006 -6.32714,1.019475 -12.23987,4.058434 -16.02823,9.345169 -3.86014,5.388659 -5.0787,12.381874 -3.96535,18.85936 0.99694,5.928126 4.33641,11.205183 9.26289,14.644916 8.20831,5.710403 19.52203,4.800893 28.88951,3.075763 0.77155,-0.142416 2.09226,-0.285547 2.72881,-0.756151 0.82108,-1.498512 0.84487,-9.46409 0.31359,-11.291145 -0.0458,-0.15543 -0.0994,-0.308059 -0.16013,-0.458149 l 0.26244,-0.742806 c -0.37029,-0.423724 -0.43556,-0.451075 -1.00524,-0.491499 -1.81801,-0.129046 -3.87245,0.587467 -5.6756,0.867355 -5.87883,0.912342 -14.68879,1.728206 -19.08398,-3.12025 -0.63284,-0.697608 -1.20287,-1.455683 -1.7614,-2.212861 7.34884,2.681945 15.38126,3.011642 22.61122,-0.386972 3.56048,-1.673243 6.50819,-4.43933 7.85065,-8.197594 1.14803,-3.210506 0.84065,-6.680279 -0.64051,-9.732142 -1.91337,-3.945516 -5.63868,-6.61655 -9.71435,-8.013004 -3.42178,-1.172454 -6.8466,-1.563313 -10.35041,-1.538996 z m 117.8799,0.0022 c -1.58614,-0.0028 -3.18474,0.08383 -4.81713,0.215725 -6.69125,1.681914 -12.52605,4.736975 -16.20171,10.828566 -3.41807,5.665571 -4.18655,12.641332 -2.58649,19.015039 1.43905,5.737772 4.82774,10.555726 9.93007,13.5952 8.00398,4.770435 20.83235,4.378503 29.71684,2.052729 0.31209,-0.08173 0.62151,-0.174206 0.9274,-0.275776 1.07123,-1.718938 0.91029,-8.798215 0.40254,-10.857469 -0.0755,-0.308616 -0.19711,-0.600073 -0.33583,-0.885152 l 0.22241,-0.858449 c -2.21432,-1.288096 -15.86102,2.750887 -22.08413,-0.197937 -2.74064,-1.298617 -3.93138,-3.284141 -6.2138,-4.95503 1.53566,0.437289 3.02989,1.083729 4.57917,1.441139 6.40639,1.478563 13.9997,1.027698 19.84014,-2.195068 3.31405,-1.828295 6.13154,-4.733259 7.17678,-8.442233 0.92264,-3.272305 0.32837,-6.767924 -1.35218,-9.694334 -2.38026,-4.146141 -6.76941,-6.648804 -11.28225,-7.830639 -2.67038,-0.699248 -5.27825,-0.95172 -7.92183,-0.956311 z m -156.59496,0.209054 -5.99362,0.135664 c 0.80993,8.5339 0.26112,17.53126 0.2691,26.127329 0.007,9.966644 0.67808,20.485276 -0.49595,30.372911 -0.53129,4.561133 -1.66943,9.03155 -3.38713,13.2905 3.09236,0.0325 6.18509,0.0303 9.27622,-0.004 1.66321,0.0297 3.3813,0.15421 5.03956,0.06 3.91219,-10.640589 3.79984,-20.415162 3.79187,-31.593864 l -0.0201,-23.709862 c -0.001,-4.840529 -0.17384,-9.784525 0.20016,-14.611556 -2.89297,-0.05189 -5.78599,-0.07423 -8.6802,-0.06672 z m 321.69888,13.12597 c 1.6533,-0.01014 3.83872,0.03196 5.05734,1.325493 0.4062,0.430726 0.60506,0.98152 0.56044,1.563459 -0.0508,0.66739 -0.40632,1.168817 -0.90294,1.596818 -2.15239,1.851454 -4.79402,1.552648 -7.40586,1.314374 -2.62424,-0.294499 -5.1877,-0.706775 -7.77727,-1.218743 3.98527,-2.358094 4.07273,-3.561858 9.10943,-4.503562 0.45202,-0.04806 0.90435,-0.07385 1.35886,-0.07784 z m -163.9897,0.0178 c 1.6211,-0.004 3.70536,-0.0269 4.89053,1.285462 0.58826,0.652653 0.53679,1.135673 0.50707,1.948207 -0.23901,0.481873 -0.50437,0.943764 -0.92296,1.292134 -2.12885,1.772194 -4.68836,1.504514 -7.24573,1.243205 -2.72578,-0.371777 -5.45673,-0.720809 -8.1887,-1.043048 4.22677,-2.50423 4.3489,-3.88149 9.64318,-4.665912 0.43718,-0.04135 0.8782,-0.06152 1.31661,-0.06004 z m -117.06593,0.0045 c 1.49603,0.0075 3.37004,0.02558 4.45242,1.243205 0.57957,0.650795 0.52021,1.137164 0.50039,1.945983 -0.26378,0.552588 -0.55092,1.047212 -1.03637,1.434468 -2.24032,1.782473 -4.81724,1.362726 -7.43033,1.078632 -2.29976,-0.19914 -4.60448,-0.587768 -6.89434,-0.898489 2.55487,-3.361967 4.99122,-4.099854 8.97154,-4.759319 0.47927,-0.03713 0.95619,-0.04687 1.43669,-0.04448 z M 72.827421,51.2542 c 0.163906,-3.26e-4 0.327016,0.0076 0.44702,0.03781 1.497634,0.37636 20.366042,12.361239 23.841077,14.277958 L 69.951813,81.847288 C 64.488353,85.108072 58.880444,88.272847 53.638912,91.884109 39.59833,82.467079 24.316831,74.759377 10.104481,65.565519 l 5.780126,-3.309284 18.350069,-10.997586 c 2.180504,1.248089 4.25725,2.720903 6.353914,4.105469 -4.146018,1.951393 -9.632232,4.809734 -12.794564,8.148667 -0.597542,0.630857 -1.222141,1.378225 -1.194277,2.2907 0.611909,1.275089 1.604155,2.162168 2.697688,3.024618 3.347973,2.640083 7.41701,4.736869 11.062082,6.952167 4.291286,2.607767 8.555206,5.55642 13.097025,7.703866 3.951336,-1.567858 24.47658,-13.088983 26.465377,-15.794715 0.540074,-0.734761 0.731882,-1.699511 0.596026,-2.593162 -0.501688,-3.297567 -11.103482,-8.264755 -14.122281,-10.461608 2.087995,-0.890306 4.032622,-2.206423 5.973614,-3.378225 0.128053,0.0047 0.294235,-0.0019 0.458141,-0.0022 z M 53.478783,70.516104 c 1.43497,-0.07505 4.70652,2.32222 6.10483,3.106895 -1.823464,1.092299 -3.561368,2.25276 -5.297523,3.476089 -1.687982,0.06142 -4.952809,-2.513724 -6.489578,-3.469417 z m 21.583739,15.125291 c 7.521483,4.332034 14.726754,9.280639 22.344339,13.430617 -6.350673,3.539428 -12.886839,7.295568 -18.834897,11.469068 -7.523711,-4.49549 -15.024606,-9.40652 -22.818047,-13.401702 6.563804,-3.426733 13.134534,-7.416115 19.308605,-11.497983 z m -43.298689,0.02447 C 35.157009,86.836187 47.24747,94.901173 50.94567,97.186077 43.525119,101.60851 36.1316,106.07422 28.763682,110.58334 27.159667,110.52515 12.121362,100.66066 9.3727908,98.976389 16.849691,94.882137 24.742676,90.475929 31.763833,85.665867 Z" />
</svg>
